<svg width="7" height="9" viewBox="0 0 7 9" fill="none" xmlns="http://www.w3.org/2000/svg">
<path d="M6.16456 1.54121C5.61835 0.598597 4.64818 0.0227197 3.56932 0.000711914C3.52327 -0.000237305 3.47691 -0.000237305 3.43084 0.000711914C2.352 0.0227197 1.38183 0.598597 0.835607 1.54121C0.27729 2.5047 0.262015 3.66204 0.794738 4.63712L3.02651 8.72205C3.02751 8.72386 3.02851 8.72567 3.02955 8.72746C3.12774 8.89813 3.30365 9.00001 3.50012 9.00001C3.69657 9.00001 3.87247 8.89811 3.97065 8.72746C3.97168 8.72567 3.97269 8.72386 3.97369 8.72205L6.20546 4.63712C6.73815 3.66204 6.72287 2.5047 6.16456 1.54121ZM3.50008 4.07813C2.80221 4.07813 2.23446 3.51038 2.23446 2.81251C2.23446 2.11464 2.80221 1.54688 3.50008 1.54688C4.19795 1.54688 4.76571 2.11464 4.76571 2.81251C4.76571 3.51038 4.19797 4.07813 3.50008 4.07813Z" fill="#E1E6E9"/>
</svg>
